<svg width="514" height="600" viewBox="0 0 514 600" fill="none" xmlns="http://www.w3.org/2000/svg">
<g clip-path="url(#clip0_2074_545)">
<path d="M256.742 99.8759C151.878 99.8759 66.868 115.288 66.868 134.298V148.569C68.0179 147.907 69.267 147.262 70.6155 146.616C84.7783 139.874 101.133 150.414 101.133 166.107V478.731H118.407V149.471C118.407 140.172 125.24 132.272 134.447 130.973C134.596 130.956 134.737 130.931 134.886 130.915C148.809 128.954 161.267 139.742 161.267 153.805V539.792H185.572V147.551C185.572 135.225 195.235 125.033 207.545 124.462C207.702 124.462 207.859 124.446 208.016 124.437C221.211 123.834 232.272 134.315 232.272 147.526V600H283.446V147.642C283.446 134.447 294.49 123.916 307.669 124.553C307.826 124.553 307.983 124.57 308.132 124.578C320.458 125.174 330.137 135.333 330.137 147.667V539.783H354.442V154.112C354.442 140.015 366.967 129.219 380.915 131.238C381.056 131.254 381.196 131.279 381.337 131.296C390.511 132.636 397.295 140.511 397.295 149.785V478.723H414.568V167.273C414.568 150.935 432.189 140.387 446.401 148.445L446.616 148.569V134.298C446.616 115.288 361.607 99.8759 256.742 99.8759ZM256.742 0C114.949 0 0 20.8388 0 46.542V87.1608C0 97.6175 19.0106 107.263 51.1085 115.031C47.1377 112.227 45.0199 109.307 45.0199 106.287C45.0199 86.0688 139.816 69.6889 256.75 69.6889C373.685 69.6889 468.481 86.0771 468.481 106.287C468.481 109.298 466.363 112.227 462.392 115.031C494.49 107.263 513.501 97.6092 513.501 87.1608V46.542C513.484 20.8388 398.536 0 256.742 0Z" fill="#2D46C5"/>
</g>
<defs>
<clipPath id="clip0_2074_545">
<rect width="513.484" height="600" fill="white"/>
</clipPath>
</defs>
</svg>
