<svg width="16" height="16" viewBox="0 0 16 16" fill="none" xmlns="http://www.w3.org/2000/svg">
<path d="M11.2614 9.05375C11.1715 9.04286 11.079 9.03197 10.9892 9.01836C11.0817 9.02925 11.1715 9.04286 11.2614 9.05375ZM8.00016 7.21353C7.28966 5.83336 5.35688 3.26086 3.56021 1.99231C1.83704 0.775472 1.18099 0.985083 0.748156 1.18108C0.24999 1.40703 0.160156 2.17197 0.160156 2.62114C0.160156 3.07031 0.407878 6.31247 0.56849 6.85419C1.09932 8.64269 2.99399 9.24703 4.73893 9.05103C4.82877 9.03742 4.9186 9.02653 5.01116 9.01292C4.92132 9.02653 4.83149 9.04014 4.73893 9.05103C2.18277 9.43214 -0.0875659 10.3631 2.89055 13.6761C6.16538 17.068 7.37677 12.9492 8.00016 10.8613C8.62355 12.9492 9.33949 16.9182 13.0526 13.6761C15.8402 10.8613 13.8175 9.42942 11.2614 9.05103C11.1715 9.04014 11.079 9.02925 10.9892 9.01564C11.0817 9.02653 11.1715 9.04014 11.2614 9.05103C13.0063 9.24431 14.8983 8.63997 15.4318 6.85419C15.5924 6.31247 15.8402 3.07303 15.8402 2.62114C15.8402 2.16925 15.7503 1.40431 15.2522 1.18108C14.822 0.987805 14.1633 0.775472 12.4428 1.99231C10.6434 3.26086 8.71066 5.83336 8.00016 7.21353Z" fill="black"/>
</svg>
