<svg xmlns="http://www.w3.org/2000/svg" viewBox="0 0 16 16" id="Discord--Streamline-Font-Awesome" height="16" width="16">
  <desc>
    Discord Streamline Icon: https://streamlinehq.com
  </desc>
<!--! Font Awesome Free 6.5.2 by @fontawesome - https://fontawesome.com License - https://fontawesome.com/license/free (Icons: CC BY 4.0, Fonts: SIL OFL 1.1, Code: MIT License) Copyright 2024 Fonticons, Inc.-->
  <path d="M13.454202500000001 3.0356425000000002c-0.0043575 -0.008445 -0.01158 -0.015062500000000001 -0.0203725 -0.0186675 -1.0166225000000002 -0.4664375 -2.0894525 -0.799045 -3.1916375 -0.9894975000000001 -0.020540000000000003 -0.0038175 -0.041210000000000004 0.005965000000000001 -0.051280000000000006 0.0242675 -0.1460875 0.265145 -0.2787 0.5374925 -0.397335 0.8160025 -1.1880975 -0.18035250000000003 -2.3966100000000004 -0.18035250000000003 -3.5847075 0 -0.11942 -0.2792175 -0.25416 -0.5516325000000001 -0.40359999999999996 -0.8160025 -0.01049 -0.017865000000000002 -0.030842500000000002 -0.02749 -0.0513075 -0.0242675 -1.1023025000000002 0.1900525 -2.1752 0.522685 -3.19169 0.9895250000000001 -0.0087025 0.0036875 -0.016045 0.009987500000000002 -0.021015000000000002 0.018025C0.5084775 6.070720000000001 -0.048377500000000004 9.03177 0.22479749999999998 11.956152500000002c0.0015525 0.014482500000000002 0.0089125 0.0277125 0.0204 0.0366675 1.1836675 0.8764175000000001 2.5076175000000003 1.5453925000000002 3.9153475 1.97838 0.0203025 0.006090000000000001 0.04225 -0.0011 0.0550125 -0.0180275 0.30235 -0.41139250000000005 0.570255 -0.8470225 0.8009900000000001 -1.3024575 0.0134425 -0.026500000000000003 0.0007275000000000001 -0.058792500000000004 -0.027175 -0.0690125 -0.422465 -0.161645 -0.8314625 -0.356505 -1.2231500000000002 -0.58275 -0.030827500000000004 -0.01812 -0.0334075 -0.061727500000000005 -0.0049325 -0.08336 0.08218500000000001 -0.0615725 0.1644275 -0.12562500000000001 0.24290750000000003 -0.19032000000000002 0.01422 -0.0117125 0.033850000000000005 -0.014357500000000002 0.05066500000000001 -0.0068275 2.5661175000000003 1.171125 5.3442875 1.171125 7.880027500000001 0 0.0168675 -0.0080175 0.0368425 -0.0055975 0.0513075 0.006215 0.07850750000000001 0.0646925 0.16072 0.12936 0.24352000000000001 0.1909325 0.0286275 0.021410000000000002 0.026367500000000002 0.065025 -0.00432 0.08336 -0.3907975 0.22815 -0.800165 0.42288500000000007 -1.2237375000000001 0.5821375 -0.0278775 0.0106075 -0.040325 0.04311 -0.026665 0.069625 0.23459750000000001 0.4529025 0.5021075 0.887985 0.8003750000000001 1.3017400000000001 0.012415 0.017405 0.034570000000000004 0.0249225 0.05501500000000001 0.018665 1.41025 -0.4315175 2.7365125 -1.1005575 3.9216675000000003 -1.9783000000000002 0.0116725 -0.00852 0.0191075 -0.0216575 0.0204 -0.0360525 0.32704 -3.3808925000000003 -0.5475225 -6.317675 -2.3182500000000004 -8.921125000000002ZM5.399775000000001 10.175507500000002c-0.7725900000000001 0 -1.4091775000000002 -0.70899 -1.4091775000000002 -1.5797125s0.6242425 -1.579765 1.4091775000000002 -1.579765c0.79107 0 1.4214975 0.7152025000000001 1.4091525000000003 1.5797125 0 0.8707750000000001 -0.6242700000000001 1.579765 -1.4091525000000003 1.579765Zm5.2101525 0c-0.7725625 0 -1.4091525000000003 -0.70899 -1.4091525000000003 -1.5797125s0.6242425 -1.579765 1.4091525000000003 -1.579765c0.7911225000000001 0 1.421525 0.7152025000000001 1.4091775000000002 1.5797125 0 0.8707750000000001 -0.618055 1.579765 -1.4091775000000002 1.579765Z" fill="#000000" stroke-width="0.025"></path>
</svg>