<svg width="16" height="16" viewBox="0 0 16 16" fill="none" xmlns="http://www.w3.org/2000/svg">
<path d="M8.00173 2.66336C5.20535 2.66336 2.93842 3.07434 2.93842 3.58129V3.96184C2.96908 3.94419 3.00239 3.92698 3.03835 3.90977C3.41603 3.72998 3.85216 4.01103 3.85216 4.42952V12.7662H4.31279V3.98588C4.31279 3.73792 4.495 3.52724 4.74054 3.49261C4.74451 3.49217 4.74826 3.49151 4.75223 3.49107C5.12351 3.43878 5.45574 3.72645 5.45574 4.10148V14.3944H6.10387V3.9347C6.10387 3.606 6.36154 3.33422 6.6898 3.31899C6.69399 3.31899 6.69818 3.31855 6.70237 3.31833C7.05424 3.30223 7.34918 3.58173 7.34918 3.93404V16H8.71384V3.93713C8.71384 3.58526 9.00835 3.30443 9.35977 3.32142C9.36397 3.32142 9.36816 3.32186 9.37213 3.32208C9.70083 3.33797 9.95894 3.60887 9.95894 3.93779V14.3942H10.6071V4.10964C10.6071 3.73373 10.9411 3.44584 11.313 3.49967C11.3168 3.50011 11.3205 3.50077 11.3243 3.50121C11.5689 3.53695 11.7498 3.74697 11.7498 3.99426V12.7659H12.2104V4.46062C12.2104 4.02493 12.6803 3.74366 13.0593 3.95853L13.065 3.96184V3.58129C13.065 3.07434 10.7981 2.66336 8.00173 2.66336ZM8.00173 0C4.22057 0 1.15527 0.555703 1.15527 1.24112V2.32429C1.15527 2.60313 1.66222 2.86036 2.51817 3.0675C2.41228 2.99272 2.3558 2.91485 2.3558 2.83433C2.3558 2.29517 4.88371 1.85837 8.00195 1.85837C11.1202 1.85837 13.6481 2.29539 13.6481 2.83433C13.6481 2.91463 13.5916 2.99272 13.4857 3.0675C14.3417 2.86036 14.8486 2.60291 14.8486 2.32429V1.24112C14.8482 0.555703 11.7829 0 8.00173 0Z" fill="black"/>
</svg>
