<svg width="16" height="16" viewBox="0 0 16 16" fill="none" xmlns="http://www.w3.org/2000/svg">
<g clip-path="url(#clip0_2084_561)">
<path d="M15.6667 0H0.333333C0.244928 0 0.160143 0.035119 0.0976311 0.0976311C0.035119 0.160143 0 0.244928 0 0.333333L0 15.6667C0 15.7551 0.035119 15.8399 0.0976311 15.9024C0.160143 15.9649 0.244928 16 0.333333 16H8C8.08841 16 8.17319 15.9649 8.2357 15.9024C8.29821 15.8399 8.33333 15.7551 8.33333 15.6667V4.5H11.5V15.6667C11.5 15.7551 11.5351 15.8399 11.5976 15.9024C11.6601 15.9649 11.7449 16 11.8333 16H15.6667C15.7551 16 15.8399 15.9649 15.9024 15.9024C15.9649 15.8399 16 15.7551 16 15.6667V0.333333C16 0.244928 15.9649 0.160143 15.9024 0.0976311C15.8399 0.035119 15.7551 0 15.6667 0Z" fill="black"/>
</g>
<defs>
<clipPath id="clip0_2084_561">
<rect width="16" height="16" fill="white"/>
</clipPath>
</defs>
</svg>
